<?xml version="1.0" encoding="UTF-8" standalone="no"?>
<svg
   version="1.2"
   viewBox="0 0 1024 1024"
   width="1024"
   height="1024"
   id="svg2"
   sodipodi:docname="logo.svg"
   inkscape:export-filename="logo.png"
   inkscape:export-xdpi="96"
   inkscape:export-ydpi="96"
   xmlns:inkscape="http://www.inkscape.org/namespaces/inkscape"
   xmlns:sodipodi="http://sodipodi.sourceforge.net/DTD/sodipodi-0.dtd"
   xmlns="http://www.w3.org/2000/svg"
   xmlns:svg="http://www.w3.org/2000/svg">
  <defs
     id="defs2" />
  <sodipodi:namedview
     id="namedview2"
     pagecolor="#000000"
     bordercolor="#000000"
     borderopacity="0.25"
     inkscape:showpageshadow="2"
     inkscape:pageopacity="0.0"
     inkscape:pagecheckerboard="true"
     inkscape:deskcolor="#d1d1d1"
     inkscape:export-bgcolor="#00000000">
    <inkscape:page
       x="0"
       y="0"
       width="1024"
       height="1024"
       id="page2"
       margin="0"
       bleed="0" />
  </sodipodi:namedview>
  <style
     id="style1">.a{opacity:1;fill:#4b4d4d}.b{opacity:1;fill:#de0c18}</style>
  <path
     fill-rule="evenodd"
     class="a"
     d="m 512,199.3875 c 164.375,0 298.75,0.375 298.75,1 0,0.5 -3.375,11.875 -7.5,25.25 -4.25,13.375 -8.125,24.75 -8.625,25.375 -0.5,0.5 -128.25,0.75 -566.625,0.25 l -7.375,-24.375 c -4,-13.375 -7.375,-25.125 -7.375,-26 0,-1.125 60.625,-1.5 298.75,-1.5 z m -260.375,68.75 H 772 v 8.5 c 0,4.625 -1.125,13.75 -2.5,20.25 -1.5,7.25 -4.375,15.75 -7.375,21.875 -2.625,5.5 -7.875,13.375 -11.5,17.375 -3.75,4 -10.125,9.625 -14.25,12.375 -4.125,2.75 -11.125,6.625 -15.625,8.375 -4.5,1.875 -9.875,3.75 -11.875,4.25 -2,0.5 -4.75,1.125 -5.875,1.375 -2,0.625 -2.25,-0.75 -2.25,-15 0,-15.5 0,-15.625 -7.25,-23.75 H 608 l -7.25,8.125 -0.125,58.5 c 0,32.125 -0.125,120 -0.5,332.125 l 2.75,8.125 c 1.5,4.5 2.875,9.875 3.5,15.625 l -189.375,0.625 0.75,-5.875 c 0.375,-3.375 1.875,-8.75 3.125,-12.25 2.25,-6 2.375,-12.75 2.375,-201.25 0,-184 -0.125,-195.125 -2.125,-198 -1.25,-1.75 -4.125,-3.875 -6.25,-4.75 -3.125,-1.25 -13.875,-1.625 -42.875,-1.625 -32,0 -39.375,0.375 -42.5,1.875 -2,1 -4.375,3 -5,4.375 -0.625,1.375 -1.25,9.25 -1.25,17.5 0,14.125 -0.125,15 -2.5,15 -1.375,0 -6.875,-1.5 -12.125,-3.25 -5.375,-1.75 -12.5,-4.75 -16,-6.75 -3.375,-2 -8.25,-5.125 -10.75,-7.125 -2.5,-1.875 -7.125,-6.625 -10.25,-10.375 -3.125,-3.75 -7.375,-10.25 -9.375,-14.375 -2.125,-4.125 -5,-11.75 -6.5,-16.875 -1.375,-5.125 -3,-15.125 -3.375,-22.125 z m 265.875,37.125 c 1.125,2.375 2,7.125 2,11.25 0,4 -0.875,10.875 -2,15.375 -1.125,4.375 -5.5,15.375 -9.625,24.375 -4.125,9 -8,19.5 -8.75,23.75 -1.25,7.25 -1.25,7.75 3.875,19.375 2.875,6.5 5.25,12.625 5.25,13.75 0,1 -1.625,5.75 -3.5,10.625 -1.875,4.75 -9,18.25 -15.875,30 -6.75,11.625 -13.75,24.875 -15.25,29.375 -1.625,4.375 -2.625,8.875 -2.25,10 0.375,1 3.125,4.875 6.375,8.75 3.125,3.75 7.375,9.875 9.5,13.75 2.125,3.75 6.625,9.75 10,13.375 4.75,5.25 6,7.5 6,11 0,2.375 -1.125,9.25 -2.625,15.25 -2.125,9 -2.375,13 -1.75,22.875 l 0.875,11.875 c -12,27.125 -17.625,39.75 -20.25,45.625 -2.625,5.75 -6.75,16.25 -9.125,23.125 l -4.375,12.5 c 21.625,18.375 31,27.375 34.625,31.875 3.75,4.375 8.25,11.125 9.875,15 1.75,3.75 3.75,10 4.5,14 1,5 2,7.375 3.625,7.875 1.125,0.25 2.75,0.25 3.375,0 0.75,-0.375 3,-8.375 5.125,-17.875 L 531,705.0125 c -4.375,-7.875 -10.875,-17.625 -17.375,-26.875 -6.5,-9.375 -12.125,-18.375 -12.5,-20 -0.375,-1.75 -0.375,-5.125 0,-7.5 0.25,-2.5 3.75,-12.25 7.75,-21.875 3.875,-9.75 10.25,-25.75 14,-35.625 3.875,-10 8.25,-23.5 9.875,-30 1.5,-6.625 3.75,-15.875 4.875,-20.625 2,-8.75 1.875,-8.875 -1,-14.375 -1.625,-3.125 -5,-11 -7.625,-17.5 -2.625,-6.625 -5.625,-16.125 -6.625,-21.25 -1.5,-7.625 -1.625,-10.375 -0.375,-14.375 0.875,-2.875 3.875,-9.25 6.75,-14.375 2.875,-5.25 6.375,-12 7.75,-15 1.875,-4.375 2.375,-8.375 2.25,-17.5 -0.125,-11 -0.5,-12.875 -5.25,-24.375 -2.875,-6.875 -6.125,-16.75 -7.125,-21.875 -1.375,-6.5 -1.75,-12.125 -1.25,-18.125 0.5,-4.875 1.75,-12.25 2.75,-16.25 1,-4.125 3.5,-12.75 5.5,-19.125 2,-6.375 3.625,-13.25 3.625,-15.25 0,-2.75 -0.875,-4.375 -3.125,-5.625 -1.75,-1.125 -9.125,-7.875 -16.5,-15 -7.375,-7.25 -13.875,-13.125 -14.375,-13.125 -0.625,0 2,4.875 5.75,10.875 3.625,6 7.625,12.75 8.75,15 z m -3.625,456.875 c 119,0.25 121.375,0.375 124.875,2.875 2,1.375 4.25,3.875 5.125,5.625 0.875,1.625 2,4.875 3.125,11.25 H 378.25 l 0.75,-4.125 c 0.375,-2.25 1.375,-5.75 2.125,-7.75 1,-2.375 3.25,-4.5 6.5,-5.875 4.75,-2.125 11.75,-2.25 126.25,-2 z m -162.625,33.375 37.5,0.375 c 36.5,0.25 37.625,0.375 38.125,2.875 0.25,1.375 1,3.875 2.75,8.75 l 2.75,-2.75 c 1.5,-1.5 5.625,-4 15.25,-8.375 l 226,-0.125 7.25,24.375 c 4,13.375 7.375,24.5 7.375,24.625 0,0.125 -79.125,0.25 -351.875,0.25 z"
     id="path1"
     style="stroke-width:1.25" />
  <path
     class="b"
     d="m 520.375,303.1375 c 1.625,3.125 2.25,7.125 2.25,14.375 0,5.5 -0.375,11.375 -0.75,13.125 -0.375,1.75 -1,4 -1.375,5 -0.375,1 -2,5.5 -3.5,10 -1.625,4.5 -4.5,11.75 -6.5,16.25 -2.125,4.5 -4.875,10.75 -6.125,14.125 -1.25,3.25 -2.375,6.875 -2.375,8 0,1.25 2.5,6.5 5.625,11.625 4.25,7.125 5.625,10.625 5.625,14.625 0,3 -1.25,9.125 -2.75,13.75 -1.625,4.75 -6.375,14.75 -10.75,22.25 -4.25,7.5 -11.25,20.625 -15.25,29.125 l -7.5,15.25 c 10.125,14.625 16.5,23.5 20.5,29.125 4.125,5.625 8.375,12.5 9.625,15.25 1.25,2.75 2.375,6.25 2.375,7.75 0,1.625 -1.75,7.5 -3.75,13.125 -3.25,9 -3.75,12 -3.75,23.125 0,11.75 -0.375,13.875 -4.375,24.125 -2.375,6.25 -4.375,11.5 -4.375,11.875 0,0.375 -3.25,8.375 -7.375,17.75 -4,9.5 -8.25,20 -9.25,23.5 -1,3.375 -2.25,8 -2.625,10 -0.625,3.25 0,4.25 4.625,7.625 2.875,2.25 8.25,7 12,10.625 3.75,3.75 9.625,10.125 13.125,14.25 3.375,4.125 7.5,10.25 9,13.75 1.5,3.375 3.875,10.5 5,15.625 2.125,8.625 2.375,9.125 3.25,5.625 0.5,-2 1.25,-5.125 1.625,-6.875 0.375,-1.75 0.875,-4.5 1.25,-6.25 0.375,-1.75 1,-6 1.375,-9.375 0.625,-6 0.375,-6.75 -6.75,-17.5 -4.125,-6.25 -11.125,-16 -15.75,-21.875 -4.625,-5.875 -8.625,-12.375 -9,-14.375 -0.375,-2 0.125,-6 1.125,-8.75 1,-2.75 6.75,-16.5 12.75,-30.625 6,-14.125 13.375,-33 16.25,-41.875 3,-8.875 6.625,-22.125 8.125,-29.375 l 2.875,-13.125 c -9,-18.875 -12.75,-27.625 -14.25,-31.625 -1.375,-3.875 -3.375,-10 -4.5,-13.375 -1,-3.5 -1.625,-8.5 -1.375,-11.25 0.25,-2.75 1.875,-7.5 3.375,-10.625 1.625,-3.125 4.875,-8.75 7.375,-12.5 2.5,-3.75 5.75,-9.75 7.375,-13.125 1.75,-3.75 3,-9 3.125,-13.125 0.125,-5.75 -0.75,-9.125 -5.875,-20.625 -3.25,-7.5 -7,-16.875 -8.375,-20.625 -1.375,-4.125 -2.25,-10.25 -2.25,-15.375 0,-5.875 1.375,-12.875 4.5,-23.75 2.5,-8.375 4.625,-15.875 4.75,-16.5 0.25,-0.625 1,-2.75 1.75,-4.75 0.875,-1.875 1.5,-6 1.5,-9.375 0,-5.25 -0.5,-6.375 -4.625,-10.375 -2.625,-2.375 -5.75,-5.25 -7,-6.25 -2.25,-1.75 -2.25,-1.625 0,2.625 z"
     id="path2"
     style="stroke-width:1.25" />
</svg>
